<?xml version="1.0" standalone="no"?>
<!DOCTYPE svg PUBLIC "-//W3C//DTD SVG 20010904//EN"
 "http://www.w3.org/TR/2001/REC-SVG-20010904/DTD/svg10.dtd">
<svg version="1.0" xmlns="http://www.w3.org/2000/svg"
 width="200.000000pt" height="200.000000pt" viewBox="0 0 200.000000 200.000000"
 preserveAspectRatio="xMidYMid meet">

<g transform="translate(0.000000,200.000000) scale(0.100000,-0.100000)"
fill="#000000" stroke="none">
<path d="M1098 1403 c6 -2 18 -2 25 0 6 3 1 5 -13 5 -14 0 -19 -2 -12 -5z"/>
<path d="M1150 1400 c0 -6 -16 -10 -35 -10 -19 0 -35 -4 -35 -10 0 -5 -3 -9
-7 -9 -20 3 -46 -2 -40 -7 3 -4 0 -13 -8 -21 -16 -16 -10 -62 9 -75 8 -6 6
-11 -4 -18 -20 -13 -26 -13 -44 5 -8 8 -20 15 -26 15 -18 0 -64 -51 -53 -59
12 -7 13 -41 1 -41 -4 0 -8 5 -8 10 0 23 -39 8 -52 -20 -7 -16 -19 -30 -26
-30 -7 0 -10 -4 -7 -10 3 -5 -3 -10 -14 -10 -12 0 -21 -3 -22 -7 0 -5 -1 -50
-2 -101 -2 -72 1 -92 12 -92 7 0 11 -6 8 -14 -6 -15 26 -46 48 -46 7 0 17 -4
20 -10 3 -5 1 -10 -4 -10 -6 0 -11 -4 -11 -10 0 -5 7 -10 15 -10 8 0 15 -7 15
-16 0 -9 8 -23 18 -30 20 -16 62 -18 62 -4 0 6 4 10 8 10 5 0 9 -16 10 -36 2
-43 9 -54 22 -34 5 8 12 11 17 7 4 -5 1 -13 -7 -18 -11 -8 -12 -12 -2 -16 6
-2 12 -13 12 -24 0 -10 5 -19 10 -19 6 0 20 -9 32 -20 23 -21 54 -28 43 -10
-4 7 2 9 18 5 29 -8 37 2 39 50 1 27 5 35 20 35 21 0 38 32 20 38 -7 2 -10 8
-7 12 3 5 -4 18 -16 29 -34 31 -38 34 -68 69 -16 17 -32 32 -36 32 -3 0 -13 7
-21 15 -9 8 -12 15 -7 15 4 0 -4 11 -19 25 -15 14 -32 25 -38 25 -5 0 -10 6
-10 13 0 6 -5 4 -11 -6 -8 -14 -6 -22 10 -36 11 -9 21 -24 23 -32 2 -7 10 -19
18 -26 13 -10 11 -12 -12 -13 -16 0 -28 -4 -28 -10 0 -5 -4 -10 -10 -10 -5 0
-10 9 -10 20 0 11 5 20 10 20 18 0 11 32 -12 51 -19 17 -20 22 -8 45 11 20 11
29 2 44 -6 10 -7 20 -3 22 5 2 11 12 13 23 1 11 12 23 23 26 11 3 19 11 18 17
-2 7 6 12 17 12 16 0 20 7 20 30 0 17 5 30 11 30 6 0 9 -7 6 -14 -4 -10 -1
-13 9 -9 16 6 19 23 4 23 -5 0 -10 14 -10 30 0 23 4 30 20 30 14 0 20 -7 21
-22 0 -13 3 -17 6 -10 2 6 16 12 29 12 20 0 24 5 24 29 0 23 5 30 23 33 17 2
21 8 19 27 -2 15 0 21 7 17 8 -5 8 0 2 17 -10 27 -61 82 -61 67z m-1 -68 c-14
-5 -11 -40 4 -46 10 -5 10 -7 0 -12 -7 -3 -13 -14 -13 -25 0 -12 -7 -19 -20
-19 -11 0 -20 5 -20 10 0 6 5 10 10 10 6 0 10 20 10 45 0 50 20 86 31 56 4 -9
2 -17 -2 -19z m-89 -32 c0 -5 -4 -10 -10 -10 -5 0 -10 5 -10 10 0 6 5 10 10
10 6 0 10 -4 10 -10z m-60 -74 c0 -3 -4 -8 -10 -11 -5 -3 -10 -1 -10 4 0 6 5
11 10 11 6 0 10 -2 10 -4z m-40 -26 c0 -5 -4 -10 -10 -10 -5 0 -10 5 -10 10 0
6 5 10 10 10 6 0 10 -4 10 -10z m-100 -100 c0 -23 -5 -30 -19 -30 -11 0 -21
-6 -24 -12 -2 -7 -8 -9 -13 -5 -5 4 -2 12 5 16 7 5 11 14 7 20 -4 6 -1 9 7 5
9 -3 16 3 20 15 8 31 17 25 17 -9z m80 -18 c0 -13 -12 -22 -22 -16 -10 6 -1
24 13 24 5 0 9 -4 9 -8z m0 -101 c0 -6 -4 -13 -10 -16 -5 -3 -10 1 -10 9 0 9
5 16 10 16 6 0 10 -4 10 -9z m-80 -81 c0 -5 -4 -10 -10 -10 -5 0 -10 5 -10 10
0 6 5 10 10 10 6 0 10 -4 10 -10z m80 -20 c0 -5 -4 -10 -10 -10 -5 0 -10 5
-10 10 0 6 5 10 10 10 6 0 10 -4 10 -10z m144 -95 c-7 -16 -24 -21 -24 -6 0 8
7 13 27 20 1 1 0 -6 -3 -14z m-38 -29 c16 -17 19 -46 4 -46 -5 0 -10 9 -10 20
0 11 -4 20 -10 20 -5 0 -10 5 -10 10 0 14 9 12 26 -4z m74 -86 c0 -11 5 -20
10 -20 6 0 10 -7 10 -15 0 -8 -4 -15 -10 -15 -5 0 -10 7 -10 15 0 8 -4 15 -10
15 -5 0 -10 9 -10 20 0 11 5 20 10 20 6 0 10 -9 10 -20z m-60 -10 c0 -5 -4
-10 -9 -10 -6 0 -13 5 -16 10 -3 6 1 10 9 10 9 0 16 -4 16 -10z"/>
<path d="M980 1291 c0 -11 5 -23 10 -26 6 -4 10 5 10 19 0 14 -4 26 -10 26 -5
0 -10 -9 -10 -19z"/>
<path d="M735 1037 c-23 -26 -25 -36 -14 -61 20 -44 39 -32 38 24 -2 51 -6 58
-24 37z m5 -37 c0 -5 -2 -10 -4 -10 -3 0 -8 5 -11 10 -3 6 -1 10 4 10 6 0 11
-4 11 -10z"/>
<path d="M940 720 c0 -5 7 -10 15 -10 8 0 15 5 15 10 0 6 -7 10 -15 10 -8 0
-15 -4 -15 -10z"/>
<path d="M1200 680 c-15 -9 -24 -50 -11 -50 7 0 33 52 28 56 -1 2 -9 -1 -17
-6z"/>
</g>
</svg>
